<mxfile host="app.diagrams.net" modified="2023-02-01T05:55:22.220Z" agent="5.0 (Windows NT 10.0; Win64; x64) AppleWebKit/537.36 (KHTML, like Gecko) Chrome/109.0.0.0 Safari/537.36" etag="8NyQeVUlWvt909uZGOBL" version="20.8.13" type="github">
  <diagram name="Page-1" id="aKNxy2ZGhKnuOq5hraQL">
    <mxGraphModel dx="794" dy="470" grid="1" gridSize="10" guides="1" tooltips="1" connect="1" arrows="1" fold="1" page="1" pageScale="1" pageWidth="3300" pageHeight="4681" math="0" shadow="0">
      <root>
        <mxCell id="0" />
        <mxCell id="1" parent="0" />
        <mxCell id="B7Xnb2P961lc5qyt7YIO-10" value="" style="edgeStyle=orthogonalEdgeStyle;rounded=0;orthogonalLoop=1;jettySize=auto;html=1;" edge="1" parent="1" source="B7Xnb2P961lc5qyt7YIO-8" target="B7Xnb2P961lc5qyt7YIO-9">
          <mxGeometry relative="1" as="geometry" />
        </mxCell>
        <mxCell id="B7Xnb2P961lc5qyt7YIO-8" value="Draft" style="rounded=1;whiteSpace=wrap;html=1;" vertex="1" parent="1">
          <mxGeometry x="40" y="50" width="80" height="30" as="geometry" />
        </mxCell>
        <mxCell id="B7Xnb2P961lc5qyt7YIO-15" value="" style="edgeStyle=orthogonalEdgeStyle;rounded=0;orthogonalLoop=1;jettySize=auto;html=1;" edge="1" parent="1" source="B7Xnb2P961lc5qyt7YIO-9" target="B7Xnb2P961lc5qyt7YIO-14">
          <mxGeometry relative="1" as="geometry" />
        </mxCell>
        <mxCell id="B7Xnb2P961lc5qyt7YIO-9" value="Open" style="whiteSpace=wrap;html=1;rounded=1;" vertex="1" parent="1">
          <mxGeometry x="160" y="50" width="70" height="30" as="geometry" />
        </mxCell>
        <mxCell id="B7Xnb2P961lc5qyt7YIO-11" value="Assessment Status" style="text;html=1;strokeColor=none;fillColor=none;align=center;verticalAlign=middle;whiteSpace=wrap;rounded=0;" vertex="1" parent="1">
          <mxGeometry x="40" y="10" width="120" height="30" as="geometry" />
        </mxCell>
        <mxCell id="B7Xnb2P961lc5qyt7YIO-14" value="" style="whiteSpace=wrap;html=1;rounded=1;" vertex="1" parent="1">
          <mxGeometry x="281" y="50" width="65" height="29" as="geometry" />
        </mxCell>
      </root>
    </mxGraphModel>
  </diagram>
</mxfile>
